<svg xmlns="http://www.w3.org/2000/svg" width="200" height="200">
  <circle cx="100" cy="100" r="99.3" fill="#013a20" fill-rule="evenodd"/>
  <g fill="#fff">
    <path d="M66.9 75zm52 0zm7.9-25zM122.6 50h.5c.1.1 0 .1-.2.1h-.3zm-11.2-25l.4.1-.3.1c-.2 0-.2 0 0-.1zM88 33.6l.7-.7-.5.7a4 4 0 01-.7.6c-.1 0 .1-.3.5-.6zm24-8.5h.2-.2zM96.2 175l16.2-.1V100h22-21.8v37.5l-.1 37.5H80h16.2zm-29.3-75zm45.6-33v-4a370.8 370.8 0 010 4zm9.2-17h.4c0 .1 0 .2-.3.2-.2 0-.2-.1 0-.2zm-9-25l.4.1-.3.1c-.2 0-.2 0 0-.1z"/>
    <path d="M134.5 99c0-.3 0-.4.1-.3v.2zm.2-1.7c0-.2 0-.2.1 0v0zm.4-3.2c0-.2 0-.2.1 0v.3l-.1-.3zm.4-3.2v-.3.3zm.2-1.5c0-.2 0-.2 0 0v0zm.3-3.1c0-.3 0-.3.1-.2.1.2 0 .3 0 .4v-.2zm.4-3.2c0-.2 0-.3.1-.1v.3l-.1-.2zm.6-4.8v-.2c.1.1.1.3 0 .4v-.2zm-24.6-20c0-.4 0-.5.1-.3V58.3zM80.2 56v-.6.6zm34.2-3.5l.8-.6-.6.6a4 4 0 01-.7.7l.5-.7zM80.5 51c0-.2 0-.3.1-.1v.3c0 .1-.1 0 0-.2zm38-.6h.4l-.3.1c-.2 0-.2 0 0 0zm2.5-.4h.4c.2.1 0 .1-.2.1h-.2zm-40.3-.3c0-.2 0-.3.1-.1v.3l-.1-.2zM85.9 36l.4-.3c.3-.2.3-.2 0 0-.2.4-.4.5-.4.3zm1-1.2l.5-.4-.2.4-.5.4s0-.2.3-.4zm1.6-1.5l.4-.4-.2.4-.5.4s0-.2.3-.4zm.6-.6l.3-.4c.3-.2.4-.2.1.1-.2.3-.4.4-.4.3zm18.8-7.2h.3-.3zm2-.2h.2-.2zm3.4-.2h.2-.2z"/>
    <path d="M80.1 137.4V99.9H62.5V75H80v-11a99 99 0 01.6-13.5A33 33 0 0184 39.5c3.5-7 10.2-11.5 19.8-13.3 4.6-1 6.6-1 20.5-1.1l13.2-.1v25h-8.1c-6 0-8.5 0-9.7.2-4 .7-5.9 2.2-6.8 5.1-.4 1.3-.4 1.8-.5 10.6V75h25.1l-.3 1.8a419.1 419.1 0 00-2 16.1l-.4 4.3-.4 2.6h-22v75H80.2z"/>
  </g>
</svg>
