<svg xmlns="http://www.w3.org/2000/svg" width="200" height="200">
  <path d="M199 100a99 99 0 01-99 99 99 99 0 01-99-99 99 99 0 0199-99 99 99 0 0199 99" fill="#013a20" fill-rule="evenodd"/>
  <g fill="#fff">
    <path d="M71 162c-14-1-24-8-29-18-2-5-4-9-4-15V71c1-14 7-24 18-29l15-4h58c14 1 24 8 29 18 2 5 4 9 4 15v58c-1 14-7 24-18 29-5 2-9 4-15 4H71zm49-11l13-1c9-2 15-8 17-17s2-57 0-66-8-15-17-17-57-2-66 0-15 8-17 17-2 57 0 66 8 15 18 17c5 1 33 2 52 1zm-28-20c-14-4-24-16-24-31 0-18 14-32 32-32s32 14 32 32c0 15-10 28-24 31H92zm11-11a21 21 0 10-6 0h6zm27-46c-3-2-4-4-4-8 0-2 0-3 2-4 1-2 3-3 5-3 5 0 8 3 8 8l-1 3-3 4h-7z"/>
    <path d="M73 162c-13-1-21-5-27-13-4-4-7-10-8-17V68l4-12c3-5 9-11 14-14l12-4h64c10 2 17 6 23 13l5 10c2 7 2 9 2 39s0 32-2 39c-3 10-11 18-21 21-7 2-7 2-37 2H73zm47-11l13-1c9-3 14-8 17-17l1-33-1-33c-3-9-8-14-17-17l-33-1-33 1c-9 3-14 8-17 17l-1 33 1 33c3 9 8 14 17 17l11 1h42zm-27-19c-11-3-20-11-24-22l-1-10 1-10c4-10 11-17 21-21l10-1 10 1c10 4 17 11 21 21l1 10-1 10c-4 10-11 18-21 21l-17 1zm10-12c9-1 16-8 17-17 2-9-3-18-11-21-18-9-36 9-27 27 3 7 10 11 18 12l3-1zm27-46c-2-2-4-4-4-7s1-6 4-7h7c1 0 3 2 3 4v6l-4 4h-6z"/>
    <path d="M72 162c-11-1-18-4-25-11l-7-12c-2-7-2-9-2-39V69l5-14c2-4 8-10 12-12l14-5h62l15 5 11 11 5 15v62l-5 15-11 11-14 5H72zm51-11c11-1 16-2 21-7 6-6 7-13 7-44s-1-38-7-44-13-7-44-7-38 1-44 7-7 13-7 44 1 38 7 44c4 4 10 6 20 7h47zm-30-20c-12-2-22-12-25-25l1-15c3-10 12-19 23-22h16c11 3 20 12 23 23v16c-3 11-12 20-22 23H93zm11-11c9-2 15-8 16-17 3-13-9-26-23-23-9 1-16 8-17 17a21 21 0 0024 23zm26-47c-4-2-6-8-2-11 4-5 13-2 13 5l-2 5c-2 2-6 3-9 1z"/>
    <path d="M72 162c-10-1-18-4-24-10s-9-14-10-25V73c1-11 4-19 10-25 7-6 14-9 25-10h54c11 1 18 4 25 10 6 6 9 14 10 25v54c-1 11-4 19-10 25-7 6-14 9-25 10H72zm52-11c11-1 15-2 20-7 6-6 7-12 7-44s-1-38-7-44c-5-5-9-6-20-7H76c-11 1-15 2-20 7s-6 9-7 20v48c1 11 2 15 7 20 4 4 10 6 19 7h49zm-31-20c-14-3-25-16-25-31a32 32 0 1159 18c-7 11-21 16-34 13zm14-11c6-3 10-7 13-13l1-7-1-7c-3-6-7-10-13-13l-7-1-7 1c-6 3-10 7-13 13v14c2 4 5 8 8 10l9 4 10-1zm23-47c-2-1-3-1-4-4-1-4 2-9 6-10 3 0 5 1 7 3a7 7 0 01-9 11z"/>
    <path d="M73 162c-11-1-18-4-25-10l-6-8c-4-9-4-11-4-44s0-35 4-44l6-8c6-5 11-8 20-10h64c9 2 14 5 20 10 5 6 8 11 10 20v64c-2 9-5 14-10 20-5 5-11 8-20 10H73zm58-12c11-2 17-8 19-19l1-31-1-31c-2-11-8-17-19-19l-31-1-31 1c-11 2-17 8-19 19l-1 26 1 38c2 9 8 15 17 17l36 1 28-1zm-37-18c-12-2-21-11-25-23V91c4-11 11-18 22-22h18c11 4 18 11 22 22v18c-4 11-11 18-22 22l-15 1zm10-12c10-2 17-10 17-20 0-11-10-21-21-21s-21 10-21 21c0 9 7 18 16 20h9zm26-47c-5-2-5-10 0-13 4-2 10 1 11 6 0 3-2 6-5 8l-6-1z"/>
    <path d="M74 162c-8 0-13-2-19-5-4-2-10-7-12-12-5-9-5-14-5-45s0-36 5-45c2-4 8-10 12-12 9-5 14-5 45-5s36 0 45 5c4 2 10 8 12 12 5 9 5 14 5 45s0 36-5 45c-2 5-8 10-12 12-6 3-10 4-20 5H74zm52-11c9-1 14-3 18-7s6-9 7-18V74c-1-9-3-14-7-18s-9-6-18-7H74c-9 1-14 3-18 7s-6 9-7 18v52c1 9 3 14 7 18s9 6 17 7h53zm-31-19c-7-2-12-4-18-9-6-7-9-14-9-23s3-16 9-22c7-7 14-10 23-10s16 3 23 10c6 6 9 13 9 22s-3 16-9 23l-14 8-14 1zm10-12c7-2 13-7 15-14 4-16-10-30-25-26-7 2-13 8-15 15-4 15 10 29 25 25zm25-47c-5-2-5-10 0-13h7c5 3 5 10 0 13h-7z"/>
    <path d="M74 162c-14-1-24-5-30-15-6-8-6-15-6-47l1-34c3-13 11-23 23-26 7-2 10-2 38-2s31 0 38 2c12 3 20 13 23 26l1 34-1 35c-3 14-12 23-26 26l-11 1H74zm52-11c9-1 14-3 18-7 3-3 5-7 6-11l1-33-1-33c-1-4-3-8-6-11-4-4-9-6-18-7H74c-9 1-14 3-18 7-3 3-5 7-6 11l-1 33 1 33c1 4 3 8 6 11 4 4 9 6 17 7h53zm-33-20a32 32 0 01-24-37 32 32 0 0137-25 32 32 0 0125 37 32 32 0 01-38 25zm12-11l5-1c2-2 7-6 8-9 4-6 4-14 0-20l-8-8c-9-5-18-3-24 3-7 7-9 16-4 25 1 3 6 7 8 9 5 2 10 2 15 1zm26-46l-5-5c-1-6 4-12 10-9l4 4c3 5-3 12-9 10z"/>
    <path d="M76 162c-14-1-21-3-28-10-5-5-7-10-9-17a459 459 0 01-1-65c2-11 6-19 13-24 4-4 11-7 19-8h60c11 2 18 6 24 13 4 4 7 11 8 19v60c-2 11-5 18-13 24-4 4-11 7-19 8H76zm56-12c8-1 13-5 16-11 3-7 3-7 3-39s0-32-3-39c-3-6-8-10-16-11l-32-1-32 1c-8 1-13 5-16 11-3 7-3 7-3 39l1 32c2 12 10 18 23 19a811 811 0 0059-1zm-37-18c-11-2-21-11-25-22-3-8-2-18 3-26 2-4 7-9 10-11 6-4 14-6 21-5s13 4 19 9a32 32 0 01-13 53c-5 2-10 2-15 2zm10-12c4-1 7-3 10-6 4-4 6-8 6-14s-2-10-6-14c-4-5-9-7-15-7s-10 2-14 6c-7 7-9 16-4 25 1 3 5 7 8 8 5 3 11 4 15 2zm26-46c-5-2-7-9-3-13 5-4 13-1 13 6 0 5-5 8-10 7z"/>
  </g>
</svg>
