<svg xmlns="http://www.w3.org/2000/svg" width="200" height="200">
  <circle cx="100" cy="100" r="99.3" fill="#013a20" fill-rule="evenodd"/>
  <path d="M77.5 153.9A74.7 74.7 0 0140 139 84 84 0 0125.8 124l-.8-1.1 1.4 1.2c2.4 2 7.4 5.2 10 6.4a36.6 36.6 0 0017.6 3.3 31 31 0 007.9-1 41.9 41.9 0 0017-9.7l1.4-1.5-2.5-.2c-2.2-.1-2.9-.3-4.2-1-2.3-1.5-3.4-3-3.5-5.2-.2-2.3.8-4 3.3-5.7l1.8-1.3-3.3-.2c-1.8 0-3.8-.3-4.4-.5a18 18 0 01-9.1-7.5l-1-1.6 1.3-1c1.7-1.6 4.1-2.7 6.4-3l1.9-.2-1.8-.6c-6.1-2-10.2-5.1-12.4-9.5-1.6-3.1-2-5.5-1-5.7 1-.3 4-.8 6-1l1.8-.3-1.2-.6c-.7-.4-2.6-2-4.4-3.7a16.8 16.8 0 01-4.5-5.9c-.8-1.6-1.6-3.7-1.8-4.6-.4-2-.4-4.5 0-4.5.5 0 11.3 4.4 17 7 7.7 3.3 18.7 9 22.5 11.4a58 58 0 016.6 5.3c1.8 1.7 3.4 3 3.5 2.8A128 128 0 01109.2 59c2.2-3.4 6.2-7.8 9-10.1 2.1-1.7 2.2-1.8 2.3-1.1 0 .4 0 1-.2 1.4l-.3.8s1-.4 1.9-1c2.5-1.6 5-2.7 6.7-2.9 1.2-.1 1.5 0 1.5.3 0 .6-1 2.1-2 3l-1 .7 2.6-.8c3.4-1 6.2-1.3 6.9-.6.8.9.7 2-.5 3s-2 1.3-7.4 3l-3.5 1 2.2.3c5.6.6 9 1.7 13 4.3A38 38 0 01156 82.7c1 3.6 1.2 3.7 6 3.7 3.6 0 6.7-.6 10-1.8 1.2-.5 2.2-.8 2.2-.7.4.3-1.5 3.2-3 4.7-2.8 2.7-5.8 4-11.6 5.2l-1 .2 1.1.4c2.6 1 7.2 1.5 11.2 1.4l4.1.1c0 .6-3.6 3.3-5.9 4.4-3 1.5-5.6 2.2-9.3 2.5l-2.6.2-.4 1.3a60.4 60.4 0 01-13 24.2 54.6 54.6 0 01-10 9.4 82.2 82.2 0 01-56.3 16z" fill="#fff"/>
</svg>
